<svg width="90" height="90" viewBox="0 0 90 90" fill="none" xmlns="http://www.w3.org/2000/svg">
<path d="M45.0028 47.7576C57.9427 47.7576 68.501 37.2389 68.501 24.2593C68.501 11.2797 57.9427 0.800781 45.0028 0.800781C32.0629 0.800781 21.5046 11.3194 21.5046 24.299C21.5046 37.2786 32.0232 47.7973 45.0028 47.7973V47.7576ZM42.3831 11.7164V8.6203C42.3831 7.19135 43.5342 6.00056 45.0028 6.00056C46.4714 6.00056 47.6225 7.15166 47.6225 8.6203V11.7164C48.6943 12.1133 49.7263 12.7087 50.5598 13.5422C51.5918 14.5742 51.5918 16.2017 50.5598 17.2337C49.5278 18.2657 47.9004 18.2657 46.8684 17.2337C45.36 15.7253 42.4228 16.9558 42.4228 19.0992C42.4228 20.5282 43.6136 21.719 45.0425 21.719C49.369 21.719 52.862 25.212 52.862 29.5385C52.862 32.9521 50.6789 35.81 47.6622 36.8817V39.9778C47.6622 41.4067 46.5111 42.5975 45.0425 42.5975C43.5739 42.5975 42.4228 41.4464 42.4228 39.9778V36.8817C41.3511 36.4848 40.319 35.8894 39.4855 35.0558C38.4535 34.0238 38.4535 32.3964 39.4855 31.3644C40.5175 30.3324 42.1449 30.3324 43.1769 31.3644C44.6853 32.8727 47.6225 31.6422 47.6225 29.4988C47.6225 28.0699 46.4318 26.8791 45.0028 26.8791C40.6763 26.8791 37.1833 23.3861 37.1833 19.0596C37.1833 15.646 39.3664 12.7881 42.3831 11.7164ZM89.4986 87.2521C89.4986 88.681 88.3475 89.8718 86.8789 89.8718H3.08702C1.65807 89.8718 0.467285 88.7207 0.467285 87.2521C0.467285 85.7835 1.61838 84.6324 3.08702 84.6324H5.86553V82.0126C5.86553 80.5837 7.01663 79.3929 8.48527 79.3929H81.5203C82.9493 79.3929 84.1401 80.544 84.1401 82.0126V84.6324H86.9186C88.3475 84.6324 89.5383 85.7835 89.5383 87.2521H89.4986ZM63.2616 74.1931V52.9574H78.9006V74.1931H63.2616ZM37.1833 52.9574H52.8223V74.1931H37.1833V52.9574ZM11.0653 74.1931V52.9574H26.7043V74.1931H11.0653ZM73.7008 24.299C73.7008 23.4258 73.6611 22.5525 73.5817 21.6793H76.3206C77.3129 21.6793 78.2258 22.235 78.6625 23.1082L89.2605 43.9867C89.6574 44.7806 89.6177 45.7729 89.1414 46.5271C88.6651 47.2813 87.8315 47.7576 86.9186 47.7576H61.4357C68.8186 42.5578 73.7008 33.9841 73.7008 24.2593V24.299ZM0.864215 46.5271C0.387899 45.7729 0.348206 44.7806 0.745136 43.9867L11.3432 23.1082C11.7798 22.235 12.6927 21.6793 13.685 21.6793H16.4239C16.3445 22.5525 16.3048 23.4258 16.3048 24.299C16.3048 33.9841 21.1473 42.5975 28.5699 47.7973H3.08702C2.17408 47.7973 1.34053 47.3209 0.864215 46.5668V46.5271Z" fill="#DDDFE0"/>
</svg>
