<svg width="89" height="80" viewBox="0 0 89 80" fill="none" xmlns="http://www.w3.org/2000/svg">
<path d="M69.8325 22.3792V79.8405H88.1599V22.3792H69.8325ZM76.3601 32.9551H81.5068V38.1018H76.3601V32.9551ZM81.5068 61.3876H76.3601V56.2409H81.5068V61.3876ZM81.601 49.7447H76.4542V44.598H81.601V49.7447ZM88.1599 8.9789V17.2325H69.8639V8.9789H88.1599ZM0.194824 79.8405H18.6163V9.38687L0.194824 4.146V79.8405ZM11.9633 61.3876H6.81653V56.2409H11.9633V61.3876ZM11.9633 49.7761H6.81653V44.6294H11.9633V49.7761ZM12.026 38.1332H6.87929V32.9865H12.026V38.1332ZM6.81653 21.3436H11.9633V26.4903H6.81653V21.3436ZM36.4416 65.687H41.5883V79.8719H36.4416V65.687ZM46.7664 65.687H51.9131V79.8719H46.7664V65.687ZM24.2338 79.8405H31.2949V60.5089H57.0599V79.8405H64.6858V0.0976562H24.2338V79.8405ZM51.9131 9.63793H57.0599V20.5904H51.9131V9.63793ZM51.9131 25.7371H57.0599V36.6896H51.9131V25.7371ZM51.9131 41.8363H57.0599V52.7888H51.9131V41.8363ZM41.5883 9.63793H46.735V20.5904H41.5883V9.63793ZM41.5883 25.7371H46.735V36.6896H41.5883V25.7371ZM41.5883 41.8363H46.735V52.7888H41.5883V41.8363ZM31.2949 9.63793H36.4416V20.5904H31.2949V9.63793ZM31.2949 25.7371H36.4416V36.6896H31.2949V25.7371ZM31.2949 41.8363H36.4416V52.7888H31.2949V41.8363Z" fill="#DDDFE0"/>
</svg>
