<svg width="123" height="90" viewBox="0 0 123 90" fill="none" xmlns="http://www.w3.org/2000/svg">
<path d="M120.298 85.1318C120.298 86.4276 119.752 87.6212 118.9 88.4737C118.047 89.3262 116.854 89.8718 115.558 89.8718H15.4722C11.6529 89.8718 8.54977 86.7687 8.54977 82.9494C8.54977 81.4489 9.57279 80.1531 11.005 79.778C12.4372 79.4029 13.1534 78.2776 13.1534 77.0159C13.1534 76.2315 12.8806 75.4131 12.3349 74.7311H22.3606C30.0673 74.7311 38.7289 75.7882 44.9693 77.4933C52.0282 79.437 59.3257 80.3918 66.6915 80.3918H114.637C118.422 80.3918 120.332 82.5061 120.332 85.1318H120.298ZM9.67509 70.9118C6.46963 65.899 2.88905 58.7038 0.945312 50.0763H42.6164L50.1867 59.5563H89.9823L95.6771 50.0763H122.207C122.207 58.2946 118.252 70.5026 116.035 76.6066H66.6915C59.6667 76.6066 52.6761 75.6859 45.9582 73.8445C39.4109 72.0372 30.3401 70.9459 22.3265 70.9459H9.64099L9.67509 70.9118ZM103.247 69.0022C103.247 70.0593 104.1 70.9118 105.157 70.9118H108.942C109.999 70.9118 110.852 70.0593 110.852 69.0022C110.852 67.9451 109.999 67.0926 108.942 67.0926H105.157C104.1 67.0926 103.247 67.9451 103.247 69.0022ZM89.9823 69.0022C89.9823 70.0593 90.8348 70.9118 91.8919 70.9118H95.6771C96.7342 70.9118 97.5867 70.0593 97.5867 69.0022C97.5867 67.9451 96.7342 67.0926 95.6771 67.0926H91.8919C90.8348 67.0926 89.9823 67.9451 89.9823 69.0022ZM35.046 27.3311H10.4253V34.9015H35.046V27.3311ZM88.1067 38.6867H65.3615V46.257H88.1067V38.6867ZM35.046 38.6867H10.4253V46.257H35.046V38.6867ZM88.1067 17.8511H65.3615V25.4215H88.1067V17.8511ZM88.1067 31.1163V29.2067H65.3615V34.9015H88.1067V31.1163ZM61.5764 17.8511H36.9557V25.4215H61.5764V17.8511ZM61.5764 38.6867H38.8312V46.257H61.5764V38.6867ZM108.942 31.1163V46.2911H122.207V33.0259L118.422 31.1163H108.942ZM105.157 46.257H91.8919V20.6815L97.5867 17.8511V14.066H95.6771C94.6199 14.066 93.7674 13.2134 93.7674 12.1563C93.7674 11.0992 94.6199 10.2467 95.6771 10.2467H101.372V6.4615C101.372 5.40438 102.224 4.55186 103.282 4.55186C104.339 4.55186 105.191 5.40438 105.191 6.4615V10.2467H108.976V2.71042C108.976 1.6533 109.829 0.800781 110.886 0.800781C111.943 0.800781 112.796 1.6533 112.796 2.71042V10.2808H116.581C117.638 10.2808 118.49 11.1333 118.49 12.1904C118.49 13.2475 117.638 14.1001 116.581 14.1001H114.671V17.8852H108.976C107.919 17.8852 107.067 18.7378 107.067 19.7949C107.067 20.852 107.919 21.7045 108.976 21.7045H114.671V27.3993H107.101C106.044 27.3993 105.191 28.2518 105.191 29.309V46.3593L105.157 46.257ZM101.372 38.6867C101.372 37.6295 100.519 36.777 99.4622 36.777C98.4051 36.777 97.5526 37.6295 97.5526 38.6867C97.5526 39.7438 98.4051 40.5963 99.4622 40.5963C100.519 40.5963 101.372 39.7438 101.372 38.6867ZM101.372 31.1163C101.372 30.0592 100.519 29.2067 99.4622 29.2067C98.4051 29.2067 97.5526 30.0592 97.5526 31.1163C97.5526 32.1734 98.4051 33.0259 99.4622 33.0259C100.519 33.0259 101.372 32.1734 101.372 31.1163ZM61.5764 29.2067H38.8312V34.9015H61.5764V29.2067ZM61.5764 55.737V50.0422H47.561L52.0964 55.737H61.5764ZM91.5168 50.0763H65.3615V55.7711H88.1067L91.5168 50.0763Z" fill="#DDDFE0"/>
</svg>
